<?xml version="1.0" encoding="UTF-8"?>
<svg width="3104px" height="430px" viewBox="0 0 3104 430" xmlns="http://www.w3.org/2000/svg" xmlns:xlink="http://www.w3.org/1999/xlink" version="1.1">
 <!-- Generated by Pixelmator Pro 1.6.4 -->
 <g id="Unused-but-usefull"/>
 <g id="White-Finished-Logo">
  <defs>
   <text id="string" transform="matrix(1.0 0.0 0.0 1.0 503.0 -103.0)" font-size="500" font-family="Quicksand-Light_Medium, Quicksand" text-decoration="none" fill="#ffffff" x="1.625" y="500.0">CirculateJS</text>
  </defs>
  <use id="CirculateJS" xlink:href="#string"/>
  <g id="Logo-Copy">
   <defs>
    <path id="Ellipse" d="M430.164 215 C430.164 96.259 333.905 0 215.164 0 96.422 0 0.164 96.259 0.164 215 0.164 333.741 96.422 430 215.164 430 333.905 430 430.164 333.741 430.164 215 Z"/>
   </defs>
   <defs>
    <path id="stroke-path" d="M401.875 116.625 L396.984 107.875 391.578 99.219 379.531 82.688 366.188 67.656 351.234 53.734 339.516 44.531 322.313 33.203 308.906 25.906 299.734 21.641 290.266 17.766 275.266 12.703 265.375 10.016 255.141 7.781 239.375 5.375 228.766 4.438 217.891 4.016 201.641 4.438 185.656 6.063 175.109 7.797 164.922 10.016 149.859 14.297 140.281 17.672 130.734 21.578 116.703 28.328 107.844 33.281 99.406 38.547 86.922 47.438 71.391 60.563 57.281 75.016 44.594 90.766 33.328 107.875 26.016 121.359 21.766 130.453 17.891 139.938 12.844 154.891 10.125 164.906 7.938 174.984 5.5 190.922 4.313 206.703 4.313 223.313 5.516 239.156 7.016 249.875 8.953 259.953 12.922 275.406 16.047 285.031 19.781 294.859 26.031 308.688 30.891 317.891 35.953 326.469 44.516 339.141 57.281 355 71.391 369.453 86.953 382.594 103.516 394.094 116.969 401.828 126.078 406.344 135.391 410.422 149.953 415.75 159.813 418.672 170.125 421.188 185.578 423.953 201.641 425.578 217.844 426 234.219 425.156 244.563 423.969 255.203 422.219 270.438 418.703 280.406 415.734 289.984 412.359 304.453 406.234 313.563 401.719 322.406 396.766 335.125 388.609 351.406 376.141 362.563 366 376.281 351.234 388.734 335.016 399.422 317.891 404.188 308.875 408.609 299.422 414.281 284.984 417.406 275.359 420.125 265.359 423.297 249.875 425.313 233.984 426.156 215 425.313 195.922 424.125 185.594 422.359 174.969 420.188 164.906 417.406 154.656 414.266 144.984 410.594 135.344 406.406 125.766 Z"/>
   </defs>
   <use id="Ellipse-1" stroke="#ffffff" stroke-opacity="1" stroke-linecap="round" fill="none" stroke-width="8" xlink:href="#stroke-path"/>
   <defs>
    <path id="Ellipse-2" d="M399.586 239.367 C399.586 153.609 330.066 84.089 244.308 84.089 158.551 84.089 89.03 153.609 89.03 239.367 89.03 325.124 158.551 394.644 244.308 394.644 330.066 394.644 399.586 325.124 399.586 239.367 Z"/>
   </defs>
   <defs>
    <path id="stroke-path-1" d="M242.406 390.641 L254.078 390.344 269.156 388.625 280.359 386.328 294.563 382.109 304.875 378.047 317.969 371.547 327.344 365.844 339.078 357.281 350.125 347.484 359.797 337.063 368.703 325.469 376.469 313.031 382.969 299.938 387.031 289.641 391.25 275.422 393.531 264.266 394.969 253 395.578 239.375 394.969 225.75 393.531 214.484 391.25 203.328 387.031 189.109 383.016 178.938 378.188 168.875 372.688 159.328 364.469 147.484 355.031 136.297 344.672 126.188 333.297 117.016 324.297 110.953 311.563 103.828 301.438 99.25 287.594 94.375 276.719 91.578 261.531 89.078 250.188 88.203 238.484 88.203 223.094 89.563 211.969 91.547 197.469 95.484 187.188 99.234 173.844 105.469 164.375 110.922 152.297 119.281 141.219 128.641 131.109 139.016 122.031 150.297 113.875 162.672 107.219 175.313 102.797 185.766 98.234 199.781 95.766 210.547 93.625 225.844 93.031 237.563 93.328 249.141 95.031 264.156 97.344 275.422 101.563 289.641 105.625 299.938 112.141 313.031 117.828 322.422 126.469 334.266 136.078 345.078 146.609 354.891 158.313 363.859 167.406 369.688 180.25 376.469 190.656 380.859 204.719 385.438 215.469 387.906 230.813 390.063 Z"/>
   </defs>
   <use id="Ellipse-3" stroke="#ffffff" stroke-opacity="1" stroke-linecap="round" fill="none" stroke-width="8" xlink:href="#stroke-path-1"/>
   <defs>
    <path id="Path" d="M367.23 261.567 C367.23 208.793 324.449 166.011 271.675 166.011 218.901 166.011 176.119 208.793 176.119 261.567 176.119 314.341 218.901 357.122 271.675 357.122 324.449 357.122 367.23 314.341 367.23 261.567 Z"/>
   </defs>
   <defs>
    <path id="stroke-path-2" d="M284.516 352.234 L291.234 351.031 300.047 348.656 306.203 346.391 314.297 342.609 320.141 339.25 327.25 334.313 334.063 328.578 340.172 322.313 345.656 315.5 350.531 308.109 354.672 300.234 357.328 293.969 360.078 285.516 361.547 279.125 362.859 269.75 363.219 261.578 362.328 248.75 361.125 242.031 359.422 235.391 355.609 224.969 352.688 218.906 349.328 213.063 345.75 207.766 340.156 200.813 334.063 194.563 327.25 188.828 320.188 183.922 312.234 179.484 304.344 176.016 297.813 173.813 288.891 171.625 282.156 170.609 272.938 170.031 265.828 170.203 258.734 170.922 249.906 172.609 243.375 174.469 235.078 177.625 228.875 180.609 221.5 184.984 214.203 190.281 207.672 196.094 201.797 202.422 196.375 209.469 191.656 217.047 188.656 222.891 185.266 231.203 182.703 239.813 181.016 248.641 180.297 255.734 180.109 262.922 180.703 272.063 181.719 278.813 183.906 287.719 186.109 294.25 189.625 302.25 192.75 308.031 197.672 315.5 203.156 322.313 209.375 328.672 215.891 334.188 221.469 338.156 228.953 342.578 237.109 346.375 245.438 349.313 252.188 351.047 261.125 352.547 268.063 353.063 275.172 353.063 Z"/>
   </defs>
   <use id="Path-1" stroke="#ffffff" stroke-opacity="1" stroke-linecap="round" fill="none" stroke-width="8" xlink:href="#stroke-path-2"/>
  </g>
 </g>
</svg>
